<svg width="14" height="14" viewBox="0 0 14 14" fill="none" xmlns="http://www.w3.org/2000/svg">
<path d="M13.7234 2.97559C13.7001 2.74284 13.5886 2.53284 13.4078 2.38409L12.0556 1.27342C11.6829 0.967753 11.1311 1.02142 10.8242 1.39417L5.13965 8.3125L2.85531 6.35542C2.48898 6.04275 1.93598 6.08417 1.62156 6.4505L0.482897 7.77933C0.330647 7.95667 0.256564 8.18242 0.274647 8.41575C0.29273 8.64908 0.400064 8.86141 0.57798 9.01308L4.8964 12.7149C5.05681 12.852 5.25573 12.9255 5.46456 12.9255C5.49023 12.9255 5.51648 12.9243 5.54273 12.922C5.77898 12.901 5.9919 12.7884 6.1424 12.6058L13.5286 3.61608C13.6773 3.43583 13.7461 3.20775 13.7234 2.97559Z" fill="#0AA5E8"/>
</svg>
