<svg width="19" height="16" viewBox="0 0 19 16" fill="none" xmlns="http://www.w3.org/2000/svg">
<path d="M6.26099 9.42928C6.23704 9.99436 6.09663 10.4944 5.83983 10.9294C5.58301 11.3606 5.2218 11.6952 4.75608 11.9331C4.29385 12.171 3.76484 12.29 3.16901 12.29C2.1863 12.29 1.41245 11.9424 0.847466 11.2472C0.282487 10.552 0 9.57057 0 8.30286V7.9014C0 7.1058 0.12669 6.41064 0.380077 5.81581C0.636884 5.21727 1.00498 4.75631 1.48436 4.43285C1.96373 4.10573 2.51842 3.94214 3.14847 3.94214C4.05588 3.94214 4.78518 4.20238 5.3365 4.72285C5.88778 5.23958 6.20107 5.95336 6.2764 6.86416H4.47873C4.46504 6.36973 4.35034 6.0147 4.13461 5.79907C3.91889 5.58346 3.59019 5.47566 3.14847 5.47566C2.6999 5.47566 2.3712 5.6578 2.16233 6.02212C1.95346 6.38648 1.84388 6.96827 1.83362 7.76755V8.34191C1.83362 9.20811 1.93291 9.82708 2.13151 10.1988C2.33352 10.5706 2.67936 10.7564 3.16901 10.7564C3.58334 10.7564 3.90006 10.6505 4.1192 10.4386C4.33836 10.2267 4.4548 9.89029 4.46848 9.42928H6.26099Z" fill="#334253"/>
<path d="M11.8762 8.93633H8.97327V12.1509H7.17303V4.0813H12.1685V5.58326H8.97327V7.43993H11.8762V8.93633Z" fill="#334253"/>
<path d="M13.0652 12.1509V4.0813H15.4807C16.1434 4.0813 16.7392 4.2439 17.2679 4.56902C17.7967 4.89046 18.2088 5.34678 18.5041 5.93797C18.8028 6.52545 18.9538 7.18498 18.9573 7.91657V8.28791C18.9573 9.02685 18.8114 9.69009 18.5195 10.2776C18.2312 10.8614 17.8226 11.3195 17.2937 11.6521C16.7684 11.9809 16.1812 12.1472 15.5323 12.1509H13.0652ZM14.8729 5.58326V10.6545H15.5013C16.0198 10.6545 16.4181 10.4568 16.6963 10.0614C16.9744 9.66236 17.1134 9.07119 17.1134 8.28791V7.93874C17.1134 7.15912 16.9744 6.57162 16.6963 6.17628C16.4181 5.78094 16.0129 5.58326 15.4807 5.58326H14.8729Z" fill="#334253"/>
</svg>
