<svg width="16" height="16" viewBox="0 0 16 16" fill="none" xmlns="http://www.w3.org/2000/svg">
<path d="M7.11104 4.52165C7.11104 5.22889 6.83009 5.90718 6.33001 6.40728C5.82991 6.90736 5.15162 7.18831 4.44438 7.18831C3.73713 7.18831 3.05887 6.90736 2.55876 6.40728C2.05866 5.90718 1.77771 5.22889 1.77771 4.52165C1.77771 3.8144 2.05866 3.13614 2.55876 2.63604C3.05887 2.13593 3.73713 1.85498 4.44438 1.85498C5.15162 1.85498 5.82991 2.13593 6.33001 2.63604C6.83009 3.13614 7.11104 3.8144 7.11104 4.52165Z" fill="#334253"/>
<path d="M14.2222 4.52165C14.2222 4.87184 14.1533 5.2186 14.0193 5.54215C13.8853 5.86567 13.6888 6.15965 13.4412 6.40728C13.1936 6.65489 12.8996 6.85132 12.5761 6.98535C12.2525 7.11935 11.9058 7.18831 11.5556 7.18831C11.2054 7.18831 10.8586 7.11935 10.5351 6.98535C10.2116 6.85132 9.91758 6.65489 9.66997 6.40728C9.42234 6.15965 9.22591 5.86567 9.09191 5.54215C8.9579 5.2186 8.88892 4.87184 8.88892 4.52165C8.88892 3.8144 9.16987 3.13614 9.66997 2.63604C10.1701 2.13593 10.8483 1.85498 11.5556 1.85498C12.2628 1.85498 12.9411 2.13593 13.4412 2.63604C13.9413 3.13614 14.2222 3.8144 14.2222 4.52165Z" fill="#334253"/>
<path d="M10.6044 14.2995C10.6453 14.0089 10.6666 13.7129 10.6666 13.4106C10.6687 12.0141 10.1988 10.6578 9.33331 9.56174C10.0089 9.17166 10.7754 8.96631 11.5555 8.96631C12.3357 8.96631 13.1021 9.17164 13.7777 9.56172C14.4534 9.95179 15.0144 10.5128 15.4045 11.1885C15.7946 11.8641 16 12.6305 16 13.4106V14.2995H10.6044Z" fill="#334253"/>
<path d="M4.44445 8.96606C5.62319 8.96606 6.75365 9.43431 7.58715 10.2678C8.42066 11.1013 8.8889 12.2318 8.8889 13.4105V14.2994H0V13.4105C0 12.2318 0.468253 11.1013 1.30175 10.2678C2.13525 9.43431 3.26572 8.96606 4.44445 8.96606Z" fill="#334253"/>
</svg>
