<svg width="14" height="16" viewBox="0 0 14 16" fill="none" xmlns="http://www.w3.org/2000/svg">
<path d="M8.0108 10.6285C7.9553 10.563 7.88508 10.5141 7.81252 10.4733C7.65454 10.3846 7.48173 10.3308 7.31018 10.2822V11.7135C7.58865 11.6796 7.90834 11.5708 8.05455 11.2909C8.12435 11.1572 8.13822 10.993 8.10979 10.8441C8.09437 10.7635 8.06252 10.6895 8.0108 10.6285Z" fill="#334253"/>
<path d="M8.0531 11.2938C8.0537 11.2927 8.05403 11.2921 8.05467 11.291C8.05413 11.2919 8.05362 11.2928 8.0531 11.2938Z" fill="#334253"/>
<path d="M6.00398 8.34047C5.9561 8.41574 5.92608 8.50124 5.91779 8.59211C5.90949 8.6832 5.91415 8.78451 5.94628 8.87023C5.97689 8.95193 6.04099 9.01224 6.10715 9.06082C6.18137 9.11517 6.26305 9.15763 6.34619 9.19364C6.41597 9.22386 6.49443 9.25277 6.57902 9.28071V7.9856C6.36533 8.03469 6.13184 8.1395 6.00398 8.34047Z" fill="#334253"/>
<path d="M8.06006 11.2803C8.05831 11.2834 8.05642 11.2867 8.05457 11.2902C8.05674 11.2861 8.05846 11.2832 8.06006 11.2803Z" fill="#334253"/>
<path d="M8.06708 11.267C8.06768 11.2659 8.06777 11.2658 8.06708 11.267V11.267Z" fill="#334253"/>
<path d="M7.77853 3.48135C8.90908 2.45888 9.6645 0.155407 9.19959 0.0546589C8.58189 -0.0792579 7.24052 0.507951 6.59217 0.611408C5.67261 0.730945 4.67107 -0.462145 4.10889 0.202882C3.6518 0.743594 4.4366 2.70998 5.66442 3.56666C2.00126 5.50495 -3.14757 15.2354 5.83483 15.9415C18.2635 16.9184 12.04 5.37018 7.77853 3.48135ZM8.84591 11.1552C8.8077 11.5346 8.62096 11.8777 8.34182 12.1105C8.04709 12.3565 7.67743 12.4708 7.31015 12.5029V12.922C7.31015 13.0342 7.26464 13.1427 7.18667 13.2169C7.07948 13.319 6.92199 13.3442 6.79189 13.2797C6.66344 13.216 6.57905 13.0742 6.57905 12.922V12.4639C6.51607 12.451 6.45355 12.4357 6.39175 12.4175C6.04849 12.3159 5.73009 12.118 5.49752 11.8252C5.38166 11.6792 5.2872 11.5136 5.22187 11.3348C5.20481 11.2881 5.18961 11.2405 5.17627 11.1924C5.16421 11.1488 5.15176 11.1045 5.14745 11.0591C5.14022 10.983 5.15424 10.9053 5.18721 10.8374C5.255 10.6979 5.39782 10.6136 5.54363 10.6276C5.68717 10.6413 5.81295 10.7485 5.85812 10.8958C5.87205 10.9411 5.88149 10.9876 5.89712 11.0325C5.91261 11.0771 5.93132 11.1204 5.95332 11.1617C5.99674 11.2429 6.05117 11.3178 6.11382 11.3829C6.24301 11.5169 6.40754 11.6039 6.57905 11.6557V10.0985C6.24368 10.005 5.89747 9.88429 5.6205 9.65245C5.48591 9.53973 5.37169 9.39968 5.29689 9.23393C5.21797 9.05897 5.18528 8.86405 5.18394 8.67047C5.18258 8.4739 5.21726 8.27907 5.29342 8.09997C5.36478 7.93229 5.46747 7.78173 5.59341 7.65693C5.86266 7.3901 6.22035 7.24128 6.57909 7.18662V7.15235V6.75151C6.57909 6.6394 6.62458 6.5309 6.70257 6.45665C6.80979 6.35457 6.96722 6.32935 7.09735 6.39388C7.22577 6.45755 7.31017 6.59933 7.31017 6.75151V7.15235V7.18426C7.35799 7.19073 7.40565 7.19847 7.45306 7.20775C7.80534 7.27636 8.14992 7.433 8.40754 7.70644C8.52957 7.83594 8.62949 7.99026 8.69975 8.15856C8.71935 8.2055 8.73654 8.25354 8.7514 8.30252C8.76525 8.3482 8.77916 8.39522 8.78577 8.44288C8.79633 8.51896 8.78556 8.59759 8.75532 8.6672C8.69333 8.80981 8.55437 8.90062 8.40816 8.89387C8.2645 8.88714 8.13434 8.78644 8.08291 8.64186C8.0676 8.59887 8.05993 8.55335 8.04429 8.51047C8.02853 8.46706 8.00811 8.42565 7.98457 8.38653C7.93884 8.31047 7.87957 8.24527 7.81189 8.19154C7.66537 8.07506 7.48765 8.01435 7.31007 7.98043V9.47066C7.52112 9.52506 7.73233 9.5844 7.93453 9.67024C8.24014 9.79998 8.52973 9.99891 8.69652 10.3126C8.67065 10.2637 8.64547 10.2161 8.6974 10.3142C8.74838 10.4106 8.72405 10.3647 8.69846 10.3164C8.83116 10.5682 8.87477 10.8692 8.84591 11.1552Z" fill="#334253"/>
<path d="M8.04917 11.301C8.04704 11.3049 8.04517 11.3083 8.0437 11.3108C8.04497 11.3086 8.04685 11.3053 8.04917 11.301Z" fill="#334253"/>
</svg>
