<svg width="13" height="16" viewBox="0 0 13 16" fill="none" xmlns="http://www.w3.org/2000/svg">
<path d="M5.88677 15.7682V13.8411H5.21224V15.7682H3.86318V13.8411H0.51145L0.848714 11.9421H1.57653C2.17281 11.9421 2.51412 11.3995 2.51412 10.8536V5.18526C2.51412 4.65406 2.18698 4.28995 1.59339 4.28995H0.49054V2.37691H3.86318V0.463867H5.21224V2.37691H5.88677V0.463867H7.23582V2.4107C10.1464 2.5038 11.2992 3.54642 11.6297 4.7223C12.0209 6.11245 11.0516 7.2794 10.2179 7.56381C11.2304 7.8074 12.632 8.5146 12.632 10.1464C12.632 12.3675 10.8189 13.8552 7.23582 13.8552V15.7682H5.88677ZM5.21224 8.7499V11.9421C7.88945 11.9421 9.72348 11.703 9.72348 10.3377C9.72348 8.87361 7.74172 8.7499 5.21224 8.7499ZM5.21224 7.47836C6.70361 7.47836 8.97476 7.37888 8.97476 5.88416C8.97476 4.6088 7.57309 4.28995 5.21224 4.28995V7.47836Z" fill="#334253"/>
</svg>
