<svg width="17" height="16" viewBox="0 0 17 16" fill="none" xmlns="http://www.w3.org/2000/svg">
<path d="M8.56048 0.171387C8.96396 0.171387 9.35093 0.337548 9.63624 0.633321C9.92155 0.929094 10.0818 1.33025 10.0818 1.74853C10.0818 2.33207 9.77757 2.84465 9.32116 3.11275V4.11424H10.0818C11.4941 4.11424 12.8485 4.6958 13.8471 5.73103C14.8456 6.76623 15.4066 8.17024 15.4066 9.63424H16.1673C16.3691 9.63424 16.5626 9.71732 16.7052 9.86522C16.8479 10.0131 16.928 10.2137 16.928 10.4228V12.7885C16.928 12.9977 16.8479 13.1982 16.7052 13.3461C16.5626 13.494 16.3691 13.5771 16.1673 13.5771H15.4066V14.3657C15.4066 14.784 15.2464 15.1851 14.961 15.4809C14.6757 15.7767 14.2888 15.9428 13.8853 15.9428H3.23568C2.83217 15.9428 2.44522 15.7767 2.1599 15.4809C1.87459 15.1851 1.7143 14.784 1.7143 14.3657V13.5771H0.953617C0.751872 13.5771 0.558388 13.494 0.415731 13.3461C0.273076 13.1982 0.192932 12.9977 0.192932 12.7885V10.4228C0.192932 10.2137 0.273076 10.0131 0.415731 9.86522C0.558388 9.71732 0.751872 9.63424 0.953617 9.63424H1.7143C1.7143 8.17024 2.27531 6.76623 3.2739 5.73103C4.2725 4.6958 5.62688 4.11424 7.03911 4.11424H7.7998V3.11275C7.34337 2.84465 7.03911 2.33207 7.03911 1.74853C7.03911 1.33025 7.19938 0.929094 7.48471 0.633321C7.77002 0.337548 8.15697 0.171387 8.56048 0.171387ZM5.13739 8.84567C4.63303 8.84567 4.14931 9.05337 3.79267 9.42308C3.43603 9.7928 3.23568 10.2942 3.23568 10.8171C3.23568 11.34 3.43603 11.8414 3.79267 12.2111C4.14931 12.5808 4.63303 12.7885 5.13739 12.7885C5.64176 12.7885 6.12547 12.5808 6.48209 12.2111C6.83874 11.8414 7.03911 11.34 7.03911 10.8171C7.03911 10.2942 6.83874 9.7928 6.48209 9.42308C6.12547 9.05337 5.64176 8.84567 5.13739 8.84567ZM11.9836 8.84567C11.4792 8.84567 10.9955 9.05337 10.6388 9.42308C10.2822 9.7928 10.0818 10.2942 10.0818 10.8171C10.0818 11.34 10.2822 11.8414 10.6388 12.2111C10.9955 12.5808 11.4792 12.7885 11.9836 12.7885C12.4879 12.7885 12.9716 12.5808 13.3283 12.2111C13.6849 11.8414 13.8853 11.34 13.8853 10.8171C13.8853 10.2942 13.6849 9.7928 13.3283 9.42308C12.9716 9.05337 12.4879 8.84567 11.9836 8.84567Z" fill="#334253"/>
</svg>
