<svg width="17" height="16" viewBox="0 0 17 16" fill="none" xmlns="http://www.w3.org/2000/svg">
<g clip-path="url(#clip0_108_1184)">
<path d="M18.0203 14.0603H0.182023C0.0819104 14.0603 0 14.1418 0 14.2415V15.5103C0 15.6099 0.0819104 15.6915 0.182023 15.6915H18.0203C18.1204 15.6915 18.2023 15.6099 18.2023 15.5103V14.2415C18.2023 14.1418 18.1204 14.0603 18.0203 14.0603ZM1.22183 11.2237L2.12512 12.1187C2.19566 12.1889 2.3117 12.1889 2.38224 12.1187L7.72233 6.81943L9.94302 9.02386C10.0798 9.15884 10.2646 9.23455 10.4572 9.23455C10.6498 9.23455 10.8346 9.15884 10.9715 9.02386L16.9828 3.06082C17.0533 2.99059 17.0533 2.87504 16.9828 2.8048L16.0795 1.90763C16.0453 1.8739 15.9991 1.85498 15.9509 1.85498C15.9028 1.85498 15.8566 1.8739 15.8224 1.90763L10.4595 7.23177L8.23655 5.02736C8.09973 4.89238 7.91494 4.81665 7.72233 4.81665C7.52974 4.81665 7.34493 4.89238 7.20812 5.02736L1.22183 10.9677C1.20481 10.9845 1.1913 11.0044 1.18208 11.0264C1.17285 11.0483 1.1681 11.0719 1.1681 11.0957C1.1681 11.1196 1.17285 11.1431 1.18208 11.1651C1.1913 11.1871 1.20481 11.207 1.22183 11.2237Z" fill="#334253"/>
</g>
<defs>
<clipPath id="clip0_108_1184">
<rect width="17" height="16" fill="white"/>
</clipPath>
</defs>
</svg>
