<svg width="29" height="28" viewBox="0 0 29 28" fill="none" xmlns="http://www.w3.org/2000/svg">
<path d="M14.4081 2.52159C18.1509 2.52159 18.5942 2.538 20.0661 2.60363C21.4341 2.6638 22.1728 2.89353 22.6653 3.08498C23.3165 3.33659 23.787 3.6429 24.274 4.12971C24.7665 4.622 25.0675 5.08693 25.3192 5.73784C25.5107 6.23012 25.7405 6.97402 25.8007 8.336C25.8664 9.81285 25.8828 10.2559 25.8828 13.9918C25.8828 17.7332 25.8664 18.1762 25.8007 19.6476C25.7405 21.015 25.5107 21.7535 25.3192 22.2458C25.0675 22.8967 24.761 23.3671 24.274 23.8539C23.7816 24.3462 23.3165 24.647 22.6653 24.8986C22.1728 25.0901 21.4286 25.3198 20.0661 25.38C18.5887 25.4456 18.1455 25.462 14.4081 25.462C10.6653 25.462 10.2221 25.4456 8.75011 25.38C7.38212 25.3198 6.6434 25.0901 6.15093 24.8986C5.49977 24.647 5.02918 24.3407 4.54217 23.8539C4.0497 23.3616 3.74874 22.8967 3.49703 22.2458C3.30551 21.7535 3.07569 21.0096 3.0155 19.6476C2.94983 18.1707 2.93342 17.7277 2.93342 13.9918C2.93342 10.2504 2.94983 9.80738 3.0155 8.336C3.07569 6.96855 3.30551 6.23012 3.49703 5.73784C3.74874 5.08693 4.05517 4.61653 4.54217 4.12971C5.03465 3.63743 5.49977 3.33659 6.15093 3.08498C6.6434 2.89353 7.38759 2.6638 8.75011 2.60363C10.2221 2.538 10.6653 2.52159 14.4081 2.52159ZM14.4081 0C10.6051 0 10.129 0.0164095 8.6352 0.0820473C7.14682 0.147685 6.12357 0.388357 5.23711 0.732956C4.31235 1.09396 3.52986 1.56984 2.75284 2.35202C1.97035 3.12874 1.49429 3.91092 1.13314 4.82985C0.788411 5.72143 0.547645 6.73882 0.481982 8.22661C0.416318 9.72534 0.399902 10.2012 0.399902 14.0027C0.399902 17.8043 0.416318 18.2801 0.481982 19.7734C0.547645 21.2612 0.788411 22.284 1.13314 23.1702C1.49429 24.0945 1.97035 24.8767 2.75284 25.6534C3.52986 26.4302 4.31235 26.9115 5.23164 27.267C6.12357 27.6116 7.14135 27.8523 8.62972 27.918C10.1236 27.9836 10.5996 28 14.4026 28C18.2056 28 18.6817 27.9836 20.1756 27.918C21.6639 27.8523 22.6872 27.6116 23.5736 27.267C24.4929 26.9115 25.2754 26.4302 26.0524 25.6534C26.8294 24.8767 27.311 24.0946 27.6667 23.1756C28.0114 22.284 28.2522 21.2667 28.3178 19.7789C28.3835 18.2856 28.3999 17.8097 28.3999 14.0082C28.3999 10.2067 28.3835 9.73081 28.3178 8.23755C28.2522 6.74976 28.0114 5.7269 27.6667 4.84079C27.3219 3.91092 26.8459 3.12874 26.0634 2.35202C25.2864 1.57531 24.5039 1.09396 23.5846 0.738425C22.6927 0.393827 21.6749 0.153155 20.1865 0.0875171C18.6872 0.0164095 18.2111 0 14.4081 0Z" fill="#6D6D6D"/>
<path d="M14.4081 6.80992C10.4355 6.80992 7.21249 10.0316 7.21249 14.0027C7.21249 17.9738 10.4355 21.1955 14.4081 21.1955C18.3807 21.1955 21.6037 17.9738 21.6037 14.0027C21.6037 10.0316 18.3807 6.80992 14.4081 6.80992ZM14.4081 18.6685C11.8308 18.6685 9.74053 16.579 9.74053 14.0027C9.74053 11.4265 11.8308 9.33698 14.4081 9.33698C16.9854 9.33698 19.0757 11.4265 19.0757 14.0027C19.0757 16.579 16.9854 18.6685 14.4081 18.6685Z" fill="#6D6D6D"/>
<path d="M23.5682 6.52544C23.5682 7.45531 22.813 8.20468 21.8883 8.20468C20.958 8.20468 20.2084 7.44984 20.2084 6.52544C20.2084 5.59557 20.9635 4.84621 21.8883 4.84621C22.813 4.84621 23.5682 5.60104 23.5682 6.52544Z" fill="#6D6D6D"/>
</svg>
