<svg width="20" height="16" viewBox="0 0 20 16" fill="none" xmlns="http://www.w3.org/2000/svg">
<g clip-path="url(#clip0_108_1144)">
<path d="M17.8302 0.941162H2.18968C0.982309 0.941162 0 1.95814 0 3.20813V12.9236C0 14.1735 0.982309 15.1906 2.18968 15.1906H17.8302C19.0375 15.1906 20.0199 14.1735 20.0199 12.9236V3.20813C20.0199 1.95814 19.0375 0.941162 17.8302 0.941162ZM2.18968 2.23655H17.8302C18.3476 2.23655 18.7685 2.67243 18.7685 3.20813V4.50352H1.25123V3.20813C1.25123 2.67243 1.67224 2.23655 2.18968 2.23655ZM17.8302 13.8951H2.18968C1.67224 13.8951 1.25123 13.4593 1.25123 12.9236V5.7989H18.7685V12.9236C18.7685 13.4593 18.3476 13.8951 17.8302 13.8951Z" fill="#334253"/>
<path d="M4.35701 12.2686H3.73458C3.3908 12.2686 3.11212 11.9454 3.11212 11.5468V10.8251C3.11212 10.4265 3.3908 10.1035 3.73458 10.1035H4.35701C4.70078 10.1035 4.97946 10.4265 4.97946 10.8251V11.5468C4.97946 11.9454 4.70078 12.2686 4.35701 12.2686Z" fill="#334253"/>
</g>
<defs>
<clipPath id="clip0_108_1144">
<rect width="20" height="16" fill="white"/>
</clipPath>
</defs>
</svg>
