<svg width="43" height="16" viewBox="0 0 43 16" fill="none" xmlns="http://www.w3.org/2000/svg">
<path d="M42.1799 5.35103C41.626 4.96186 40.8057 4.76329 39.7203 4.76329H36.8734L35.8181 10.7677H32.0904L32.3333 9.40162H34.5731L34.8386 7.86873H32.5916L32.8345 6.51061H35.1496L35.4537 4.75539H30.7541L29.752 10.45H28.0291L29.0385 4.75539H26.5864L25.5843 10.45H23.9065L24.9161 4.75539H22.4642L21.4012 10.7597H17.6509L17.8862 9.39367H20.141L20.4067 7.86873H18.1519L18.3873 6.50266H20.7331L21.0368 4.7395H6.40747L5.57238 9.52077L3.91734 4.76329H1.36651L0 12.5308H2.42935L3.25685 7.6384L4.86631 12.5308H13.5817L14.6445 6.52652H16.011L14.9482 12.5308H37.883L38.5508 8.74238L39.6292 12.5308H42.0662L40.9502 9.43339L41.2004 9.37779C41.7625 9.25071 42.2027 8.98066 42.5064 8.57561C42.8098 8.17055 42.9694 7.6384 42.9694 7.01099C42.9619 6.27235 42.7037 5.73227 42.1799 5.35103ZM11.4712 10.7677H7.75119L7.99412 9.40162H10.3324L10.5981 7.86873H8.28262L8.50276 6.51854H12.2228L11.4712 10.7677ZM40.1682 8.14674C39.9253 8.32937 39.5682 8.40879 39.0826 8.40879H38.5965L38.9686 6.32793H39.3255C39.7278 6.32793 40.0241 6.39942 40.2212 6.53442C40.3808 6.64561 40.5627 6.85213 40.5627 7.25716C40.578 7.75754 40.3577 8.01964 40.1682 8.14674Z" fill="#334253"/>
</svg>
