<svg width="34" height="8" viewBox="0 0 34 8" fill="none" xmlns="http://www.w3.org/2000/svg">
<path d="M30.7541 2.26135H29.4979C29.2468 2.26135 29.2334 2.57435 29.2137 2.72807C28.8501 2.24432 28.288 2.15894 27.6467 2.15894C26.027 2.15894 24.7907 3.38256 24.7907 4.73133C24.7907 5.8413 25.5972 6.56403 26.8863 6.56403C27.5012 6.56403 28.2417 6.2852 28.6384 5.88676C28.6187 5.97222 28.5725 6.15427 28.5725 6.23954C28.5725 6.37066 28.6384 6.46725 28.7839 6.46725H29.9277C30.1061 6.46725 30.2582 6.30217 30.2913 6.14296L30.9658 2.48335C30.9858 2.37515 30.8865 2.26135 30.7541 2.26135ZM27.5808 5.42003C26.9724 5.42003 26.5098 5.11837 26.5098 4.56643C26.5098 3.86631 27.1379 3.31421 27.9444 3.31421C28.5593 3.31421 29.0222 3.63868 29.0154 4.19634C29.0154 4.89638 28.3741 5.42003 27.5808 5.42003Z" fill="#334253"/>
<path d="M11.9779 2.26135H10.7217C10.4706 2.26135 10.4573 2.57435 10.4441 2.72807C10.0607 2.24432 9.50528 2.15894 8.87716 2.15894C7.25738 2.15894 6.02112 3.38256 6.02112 4.73133C6.02112 5.8413 6.82771 6.56403 8.11686 6.56403C8.71186 6.56403 9.45238 6.2852 9.86888 5.88676C9.83592 5.97222 9.80289 6.15427 9.80289 6.23954C9.80289 6.37066 9.86888 6.46725 10.0144 6.46725H11.1514C11.3301 6.46725 11.4821 6.30217 11.5152 6.14296L12.1895 2.48335C12.2093 2.37515 12.1101 2.26135 11.9779 2.26135ZM8.79117 5.42003C8.18302 5.42003 7.7334 5.12415 7.7334 4.56643C7.7334 3.87195 8.3615 3.31421 9.168 3.31421C9.78295 3.31421 10.2457 3.63868 10.2457 4.19634C10.2457 4.89076 9.60438 5.42003 8.79117 5.42003Z" fill="#334253"/>
<path d="M4.11685 0.166992H1.47239C1.30706 0.166992 1.14182 0.280786 1.12859 0.434523L0.0442576 6.24526C0.024379 6.35921 0.123637 6.47296 0.255851 6.47296H1.51197C1.69045 6.47296 1.85571 6.30789 1.87566 6.14848L2.17302 4.6346C2.23925 4.22491 3.04576 4.36715 3.36316 4.36715C5.25401 4.36715 6.41094 3.39966 6.41094 1.76055C6.41103 0.565432 5.34001 0.166992 4.11685 0.166992ZM4.40784 2.2842C4.27556 3.00705 3.71359 3.09236 2.98648 3.09236L2.44432 3.10945L2.7287 1.58994C2.74184 1.49316 2.84103 1.43622 2.9402 1.43622H3.25107C3.99789 1.43614 4.55991 1.52153 4.40784 2.2842Z" fill="#334253"/>
<path d="M22.8933 0.166992H20.2685C20.0901 0.166992 19.9249 0.280786 19.9047 0.434523L18.8337 6.2396C18.8206 6.35355 18.9199 6.46731 19.0454 6.46731H20.4007C20.533 6.46731 20.6321 6.38184 20.6652 6.28526L20.9628 4.6346C21.0288 4.22491 21.8355 4.36715 22.1526 4.36715C24.0305 4.36715 25.1874 3.39966 25.1874 1.76055C25.1874 0.565432 24.1164 0.166992 22.8933 0.166992ZM21.7693 3.09236L21.2402 3.10945L21.5179 1.58994C21.5313 1.49316 21.6106 1.43622 21.7296 1.43622H22.0272C22.5891 1.43622 23.2173 1.46473 23.2238 2.06799C23.2238 2.92161 22.6288 3.09236 21.7693 3.09236Z" fill="#334253"/>
<path d="M14.6554 7.83324L18.8669 2.56316C18.9 2.53471 18.9 2.50628 18.9 2.46646C18.9 2.36973 18.8009 2.26733 18.6885 2.26733H17.4188C17.3067 2.26733 17.1876 2.32413 17.1215 2.40958L15.3695 4.62921L14.6423 2.49502C14.5894 2.36981 14.4439 2.26741 14.2786 2.26741H13.0423C12.9298 2.26741 12.8307 2.36981 12.8307 2.46651C12.8307 2.53479 14.1199 5.6992 14.2324 6.00066C14.0539 6.21705 12.877 7.62856 12.877 7.79929C12.877 7.90154 12.9762 7.98134 13.0886 7.98134H14.358C14.477 7.97568 14.5894 7.91851 14.6554 7.83324Z" fill="#334253"/>
<path d="M33.8946 0.366192C33.8946 0.252377 33.7955 0.166992 33.6831 0.166992H32.4598C32.361 0.166992 32.2615 0.235265 32.2483 0.320651L31.1773 6.23973L31.1576 6.26803C31.1576 6.37066 31.2566 6.46725 31.3888 6.46725H32.4797C32.6452 6.46725 32.8102 6.30217 32.8236 6.14295L33.8946 0.383285V0.366192Z" fill="#334253"/>
</svg>
