<svg width="29" height="16" viewBox="0 0 29 16" fill="none" xmlns="http://www.w3.org/2000/svg">
<g clip-path="url(#clip0_108_1181)">
<path d="M0.240676 9.17345L2.46539 9.03451C2.50887 9.39931 2.61315 9.66857 2.76089 9.85964C3.00421 10.1638 3.34311 10.3201 3.79503 10.3201C4.12526 10.3201 4.38598 10.2418 4.56847 10.0855C4.75096 9.92914 4.83787 9.74674 4.83787 9.53828C4.83787 9.3472 4.75096 9.1648 4.57715 9.00844C4.40333 8.85208 4.00359 8.70444 3.37789 8.57417C2.35243 8.33962 1.62244 8.03562 1.18793 7.65341C0.744731 7.27124 0.527474 6.78481 0.527474 6.19418C0.527474 5.80332 0.640442 5.43852 0.866382 5.09106C1.09234 4.74363 1.43125 4.47434 1.88315 4.2746C2.33505 4.07481 2.95206 3.97925 3.74287 3.97925C4.70748 3.97925 5.44617 4.16165 5.95891 4.51778C6.46293 4.8739 6.76709 5.44717 6.86272 6.22892L4.65538 6.35921C4.59452 6.02048 4.47288 5.76858 4.28167 5.61222C4.09918 5.45589 3.83846 5.37772 3.50823 5.37772C3.23885 5.37772 3.03026 5.42982 2.89125 5.55142C2.75219 5.66433 2.68266 5.80332 2.68266 5.96835C2.68266 6.08995 2.73479 6.19418 2.84777 6.28972C2.96076 6.39397 3.22148 6.48084 3.62991 6.56768C4.65538 6.78481 5.38534 7.01065 5.82855 7.2365C6.27177 7.46233 6.59329 7.74027 6.79316 8.07033C6.99308 8.40042 7.09731 8.77392 7.09731 9.19084C7.09731 9.67727 6.9583 10.1202 6.69758 10.5285C6.42818 10.9367 6.0545 11.2495 5.56783 11.458C5.08987 11.6664 4.48156 11.7706 3.74287 11.7706C2.45671 11.7706 1.5616 11.5273 1.07496 11.0236C0.579607 10.5285 0.301513 9.9031 0.231995 9.13874L0.240676 9.17345ZM8.14018 4.10957H10.2867V8.00956L11.8596 6.19418H14.4493L12.4854 8.11376L14.5623 11.6751H12.1899L11.0775 9.47748L10.2867 10.2505V11.6751H8.14018V4.10957ZM15.2141 6.19418H17.1781V7.08884C17.3694 6.69795 17.5605 6.43738 17.7602 6.28972C17.9603 6.14205 18.2122 6.07256 18.5078 6.07256C18.8206 6.07256 19.1596 6.16814 19.5245 6.35921L18.8727 7.8532C18.6293 7.74899 18.4295 7.69686 18.2818 7.69686C18.0037 7.69686 17.7952 7.80977 17.6388 8.03562C17.4215 8.35701 17.3172 8.95632 17.3172 9.8336V11.6664H15.2054V6.18551L15.2141 6.19418ZM19.959 4.10957H22.062V5.54275H19.959V4.10957ZM19.959 6.19418H22.062V11.6751H19.959V6.19418ZM23.4698 4.10957H25.5731V11.6751H23.4698V4.10957ZM26.9897 4.10957H29.0926V11.6751H26.9897V4.10957Z" fill="#334253"/>
</g>
<defs>
<clipPath id="clip0_108_1181">
<rect width="29" height="16" fill="white"/>
</clipPath>
</defs>
</svg>
