<svg width="59" height="11" viewBox="0 0 59 11" fill="none" xmlns="http://www.w3.org/2000/svg">
<path d="M0.0117188 10.7292H58.5914V4.67024C58.5914 4.68894 58.5726 4.68894 58.5537 4.70764L56.0886 7.10132L56.672 10.4674C56.6908 10.5422 56.6532 10.617 56.5967 10.6544C56.5591 10.6731 56.5214 10.6918 56.4838 10.6918C56.4462 10.6918 56.4273 10.6918 56.3897 10.6731L53.3412 9.08358L50.2928 10.6731C50.2363 10.7105 50.161 10.6918 50.0858 10.6544C50.0293 10.617 49.9917 10.5422 50.0105 10.4674L50.5938 7.10132L48.1287 4.70764C48.0723 4.65154 48.0534 4.57674 48.0723 4.52064C48.0911 4.44583 48.1475 4.40843 48.2228 4.38973L51.6288 3.90352L53.153 0.836617C53.1907 0.780515 53.2471 0.724413 53.3224 0.724413C53.3977 0.724413 53.4541 0.761814 53.4918 0.836617L55.016 3.90352L58.422 4.38973C58.4785 4.38973 58.5349 4.42713 58.5537 4.48323V0.687012H0.0117188V10.7292ZM36.1042 4.52064C36.123 4.44583 36.1794 4.40843 36.2547 4.38973L39.6607 3.90352L41.185 0.836617C41.2226 0.780515 41.279 0.724413 41.3543 0.724413C41.4296 0.724413 41.486 0.761814 41.5237 0.836617L43.0479 3.90352L46.4539 4.38973C46.5292 4.40843 46.5857 4.44583 46.6045 4.52064C46.6233 4.59544 46.6045 4.67024 46.548 4.70764L44.0829 7.10132L44.6662 10.4674C44.6851 10.5422 44.6474 10.617 44.591 10.6544C44.5533 10.6731 44.5157 10.6918 44.4781 10.6918C44.4404 10.6918 44.4216 10.6918 44.384 10.6731L41.3355 9.08358L38.287 10.6731C38.2306 10.7105 38.1553 10.6918 38.08 10.6544C38.0236 10.617 37.9859 10.5422 38.0048 10.4674L38.5881 7.10132L36.123 4.70764C36.1042 4.65154 36.0853 4.57674 36.1042 4.52064ZM24.0984 4.52064C24.1173 4.44583 24.1737 4.40843 24.249 4.38973L27.655 3.90352L29.1792 0.836617C29.2169 0.780515 29.2733 0.724413 29.3486 0.724413C29.4239 0.724413 29.4803 0.761814 29.518 0.836617L31.0422 3.90352L34.4482 4.38973C34.5235 4.40843 34.5799 4.44583 34.5987 4.52064C34.6176 4.59544 34.5987 4.67024 34.5423 4.70764L32.0772 7.10132L32.6605 10.4674C32.6793 10.5422 32.6417 10.617 32.5852 10.6544C32.5476 10.6731 32.51 10.6918 32.4723 10.6918C32.4347 10.6918 32.4159 10.6918 32.3783 10.6731L29.3298 9.08358L26.2813 10.6731C26.2248 10.7105 26.1496 10.6918 26.0743 10.6544C26.0179 10.617 25.9802 10.5422 25.999 10.4674L26.5824 7.10132L24.1173 4.70764C24.0984 4.65154 24.0796 4.57674 24.0984 4.52064ZM12.0739 4.52064C12.0927 4.44583 12.1492 4.40843 12.2244 4.38973L15.6305 3.88482L17.1547 0.817916C17.1923 0.761814 17.2488 0.705712 17.324 0.705712C17.3993 0.705712 17.4558 0.743114 17.4934 0.817916L19.0176 3.88482L22.4237 4.37103C22.4989 4.38973 22.5554 4.42713 22.5742 4.50194C22.593 4.57674 22.5742 4.65154 22.5177 4.68894L20.0526 7.08262L20.636 10.4487C20.6548 10.5235 20.6172 10.5983 20.5607 10.6357C20.5231 10.6544 20.4854 10.6731 20.4478 10.6731C20.4102 10.6731 20.3913 10.6731 20.3537 10.6544L17.324 9.06488L14.2756 10.6544C14.2191 10.6918 14.1438 10.6731 14.0686 10.6357C14.0121 10.5983 13.9745 10.5235 13.9933 10.4487L14.5767 7.08262L12.1304 4.70764C12.0739 4.65154 12.0551 4.57674 12.0739 4.52064ZM0.068172 4.52064C0.0869898 4.44583 0.143443 4.40843 0.218714 4.38973L3.62473 3.90352L5.14896 0.836617C5.1866 0.780515 5.24305 0.724413 5.31832 0.724413C5.3936 0.724413 5.45005 0.761814 5.48768 0.836617L7.01192 3.90352L10.4179 4.38973C10.4932 4.40843 10.5497 4.44583 10.5685 4.52064C10.5873 4.59544 10.5685 4.67024 10.512 4.70764L8.0469 7.08262L8.63025 10.4487C8.64907 10.5235 8.61143 10.5983 8.55498 10.6357C8.51734 10.6544 8.47971 10.6731 8.44207 10.6731C8.40444 10.6731 8.38562 10.6731 8.34798 10.6544L5.29951 9.06488L2.26985 10.6544C2.2134 10.6918 2.13812 10.6918 2.06285 10.6357C2.0064 10.5983 1.96876 10.5235 1.98758 10.4487L2.57093 7.08262L0.105808 4.70764C0.068172 4.65154 0.0493543 4.57674 0.068172 4.52064Z" fill="#E5ECF0"/>
</svg>
