<svg width="29" height="22" viewBox="0 0 29 22" fill="none" xmlns="http://www.w3.org/2000/svg">
<path d="M9.00871 21.6399C19.5721 21.6399 25.3515 13.452 25.3515 6.35361C25.3515 6.12343 25.3461 5.88813 25.3351 5.65794C26.4594 4.89746 27.4296 3.95549 28.2002 2.8763C27.1531 3.31204 26.0414 3.59661 24.9031 3.72031C26.1017 3.04829 26.9991 1.99258 27.4291 0.74889C26.3015 1.37394 25.0684 1.81486 23.7825 2.05275C22.9162 1.19171 21.7707 0.621596 20.5232 0.430558C19.2756 0.239519 17.9956 0.438196 16.8809 0.99587C15.7662 1.55355 14.879 2.43916 14.3563 3.51578C13.8337 4.59241 13.7049 5.80008 13.9896 6.95209C11.7064 6.84492 9.47279 6.29015 7.43351 5.32374C5.39423 4.35733 3.59484 3.00085 2.15199 1.34225C1.41866 2.52486 1.19426 3.92427 1.5244 5.25607C1.85453 6.58787 2.71443 7.75213 3.92934 8.51222C3.01726 8.48514 2.12517 8.25545 1.32676 7.84213V7.90863C1.32594 9.14969 1.78464 10.3527 2.62489 11.3132C3.46514 12.2737 4.63507 12.9324 5.93582 13.1773C5.09093 13.3935 4.20417 13.425 3.34418 13.2694C3.71123 14.3367 4.42536 15.2702 5.38693 15.9396C6.34849 16.609 7.5095 16.9809 8.70793 17.0034C6.67336 18.4983 4.16007 19.3091 1.57285 19.3053C1.11403 19.3046 0.655661 19.2783 0.200195 19.2265C2.82853 20.8037 5.88598 21.6414 9.00871 21.6399Z" fill="#6D6D6D"/>
</svg>
